<svg width="16" height="16" viewBox="0 0 16 16" fill="none" xmlns="http://www.w3.org/2000/svg">
<g clip-path="url(#clip0)">
<path d="M13.2411 8.609L13.241 8.60904C13.033 8.70865 12.9 8.91951 12.9 9.15041V11.9H3.1V9.15041C3.1 8.91951 2.96705 8.70869 2.759 8.60904L2.75892 8.609C1.73457 8.1195 1.09999 7.12008 1.09999 6.00002C1.09999 4.40095 2.40091 3.10002 3.99999 3.10002C4.00389 3.10002 4.00824 3.10027 4.01323 3.10076C3.94563 3.38875 3.89999 3.68739 3.89999 4.00001C3.89999 4.33162 4.16839 4.60002 4.49999 4.60002C4.8316 4.60002 5.1 4.33162 5.1 4.00001C5.1 2.40094 6.40093 1.10002 8 1.10002C9.59907 1.10002 10.9 2.40094 10.9 4.00001C10.9 4.33162 11.1684 4.60002 11.5 4.60002C11.8316 4.60002 12.1 4.33162 12.1 4.00001C12.1 3.68739 12.0544 3.38875 11.9868 3.10077C11.9918 3.10028 11.9961 3.10002 12 3.10002C13.5991 3.10002 14.9 4.40095 14.9 6.00002C14.9 7.12008 14.2654 8.1195 13.2411 8.609ZM12 1.90001C11.8425 1.90001 11.6823 1.91402 11.5207 1.93581C10.8085 0.724897 9.50587 -0.1 8 -0.1C6.49413 -0.1 5.19146 0.724926 4.47937 1.93581C4.31775 1.91402 4.15751 1.90001 4.00001 1.90001C1.73922 1.90001 -0.1 3.73872 -0.1 5.99999C-0.1 7.45805 0.657355 8.77027 1.90001 9.50947V14.5C1.90001 15.3824 2.61763 16.1 3.50001 16.1H12.5C13.3824 16.1 14.1 15.3824 14.1 14.5V9.50947C15.3427 8.77027 16.1 7.45805 16.1 5.99999C16.1 3.73872 14.2608 1.90001 12 1.90001ZM3.50001 14.9C3.27942 14.9 3.1 14.7202 3.1 14.5V13.1H12.9V14.5C12.9 14.7202 12.7206 14.9 12.5 14.9H3.50001Z" fill="#FF8549" stroke="#FF8549" stroke-width="0.2"/>
</g>
<defs>
<clipPath id="clip0">
<rect width="16" height="16" fill="white"/>
</clipPath>
</defs>
</svg>
