<svg width="16" height="16" viewBox="0 0 16 16" fill="none" xmlns="http://www.w3.org/2000/svg">
<g opacity="0.4" clip-path="url(#clip0)">
<path d="M12 2.00001C11.8272 2.00001 11.6494 2.01753 11.4678 2.04426C10.7802 0.830307 9.49183 0 8 0C6.50817 0 5.21979 0.830336 4.53223 2.04426C4.35059 2.01753 4.17285 2.00001 4.00001 2.00001C1.79444 2.00001 0 3.79396 0 5.99999C0 7.4414 0.758311 8.73633 2.00001 9.45215V14.5C2.00001 15.3272 2.67285 16 3.50001 16H12.5C13.3272 16 14 15.3272 14 14.5V9.45215C15.2417 8.73633 16 7.4414 16 5.99999C16 3.79396 14.2056 2.00001 12 2.00001ZM12.5 15H3.50001C3.22412 15 3 14.7754 3 14.5V13H13V14.5C13 14.7754 12.7759 15 12.5 15ZM13.2842 8.69923C13.1109 8.78223 13 8.95802 13 9.15041V12H3V9.15041C3 8.95802 2.88916 8.78226 2.7158 8.69923C1.65723 8.19337 0.999989 7.15918 0.999989 6.00002C0.999989 4.34572 2.34568 3.00003 3.99999 3.00003C4.04247 3.00003 4.09312 3.01497 4.13665 3.01723C4.05602 3.33345 3.99999 3.659 3.99999 4.00001C3.99999 4.27639 4.22362 4.50002 4.49999 4.50002C4.77637 4.50002 5 4.27639 5 4.00001C5 2.34571 6.3457 1.00002 8 1.00002C9.6543 1.00002 11 2.34571 11 4.00001C11 4.27639 11.2236 4.50002 11.5 4.50002C11.7764 4.50002 12 4.27639 12 4.00001C12 3.659 11.944 3.33345 11.8633 3.01723C11.9069 3.01497 11.9575 3.00003 12 3.00003C13.6543 3.00003 15 4.34572 15 6.00002C15 7.15918 14.3428 8.19337 13.2842 8.69923Z" fill="#4B4845"/>
</g>
<defs>
<clipPath id="clip0">
<rect width="16" height="16" fill="white"/>
</clipPath>
</defs>
</svg>
