<svg width="24" height="24" viewBox="0 0 24 24" fill="none" xmlns="http://www.w3.org/2000/svg">
<g clip-path="url(#clip0)">
<path d="M23.2272 5.98891L17.2681 3.37578C16.9579 3.23969 16.5961 3.38098 16.4601 3.69115L15.4448 6.00652C15.4324 6.03484 15.4291 6.0662 15.4354 6.09644L15.6099 6.93055C15.619 6.97375 15.6468 7.01071 15.6858 7.03135L16.1567 7.28016C16.2023 7.30416 16.232 7.35008 16.2355 7.40145L16.2871 8.17779C16.2827 8.18227 16.2787 8.18643 16.2742 8.191C14.4109 10.1375 13.5434 12.5476 12.8508 14.89C12.8452 14.9092 12.8413 14.9304 12.8365 14.9505H4.70304C4.15078 14.9505 3.703 15.3983 3.703 15.9506C3.703 18.4094 4.88249 20.6004 6.71063 21.9996H6.50838C5.95612 21.9996 5.50835 22.4474 5.50835 22.9996C5.50835 23.5519 5.95612 23.9997 6.50838 23.9997H16.3448C16.8971 23.9997 17.3449 23.5519 17.3449 22.9996C17.3449 22.4474 16.8971 21.9996 16.3448 21.9996H16.1425C17.9706 20.6004 19.1501 18.4094 19.1501 15.9506C19.1501 15.3983 18.7023 14.9505 18.1501 14.9505H15.5101C15.6652 13.0629 15.8607 11.6121 16.8068 9.57977L20.8711 11.362C21.1813 11.498 21.5431 11.3568 21.6791 11.0466L23.5426 6.7971C23.6787 6.48669 23.5375 6.12492 23.2272 5.98891Z" fill="#FEFEFE"/>
<path d="M8.41498 12.0155C8.62755 12.7264 9.37622 13.1303 10.087 12.9177C10.7979 12.7051 11.2018 11.9565 10.9892 11.2457C10.3549 9.12414 9.3011 6.35644 7.71696 4.79247L7.76456 4.07724C7.768 4.02588 7.79776 3.97996 7.84328 3.95596L8.31418 3.70715C8.35322 3.68651 8.38106 3.64954 8.3901 3.60634L8.56459 2.77223C8.57091 2.74199 8.56763 2.71055 8.55523 2.68231L7.53991 0.366944C7.40391 0.0566923 7.04213 -0.0845129 6.73188 0.0515721L0.772705 2.66463C0.462454 2.80063 0.321249 3.16241 0.457334 3.47266L2.32084 7.72225C2.45685 8.03251 2.81862 8.17371 3.12887 8.03763L7.19718 6.25364C8.37186 8.76013 8.25818 11.4913 8.41498 12.0155Z" fill="#FEFEFE"/>
</g>
<defs>
<clipPath id="clip0">
<rect width="24" height="24" fill="white"/>
</clipPath>
</defs>
</svg>
