<svg width="172" height="27" viewBox="0 0 172 27" fill="none" xmlns="http://www.w3.org/2000/svg">
<path d="M38.9 18V16.812C39.176 16.8 39.404 16.764 39.584 16.704C39.776 16.644 39.92 16.506 40.016 16.29C40.124 16.074 40.178 15.726 40.178 15.246V8.352C40.178 8.028 40.184 7.716 40.196 7.416C40.22 7.116 40.238 6.888 40.25 6.732C40.058 6.744 39.818 6.756 39.53 6.768C39.242 6.768 39.032 6.774 38.9 6.786V5.4H44.066V6.588C43.802 6.6 43.574 6.636 43.382 6.696C43.19 6.756 43.04 6.894 42.932 7.11C42.836 7.314 42.788 7.662 42.788 8.154V10.89H44.084L45.47 8.532C45.674 8.172 45.89 7.812 46.118 7.452C46.346 7.092 46.538 6.846 46.694 6.714C46.502 6.726 46.298 6.738 46.082 6.75C45.866 6.762 45.692 6.774 45.56 6.786V5.4H49.97V6.588C49.706 6.6 49.418 6.648 49.106 6.732C48.806 6.816 48.494 6.984 48.17 7.236C47.846 7.488 47.516 7.884 47.18 8.424L45.452 11.196C45.908 11.496 46.286 11.85 46.586 12.258L48.44 14.868C48.8 15.384 49.178 15.834 49.574 16.218C49.982 16.59 50.39 16.788 50.798 16.812V18H48.026C47.93 17.988 47.774 17.88 47.558 17.676C47.342 17.472 47.114 17.226 46.874 16.938C46.634 16.65 46.43 16.392 46.262 16.164L44.48 13.572C44.324 13.344 44.15 13.11 43.958 12.87C43.778 12.63 43.604 12.45 43.436 12.33H42.788V15.048C42.788 15.372 42.782 15.684 42.77 15.984C42.758 16.284 42.74 16.512 42.716 16.668C42.908 16.644 43.148 16.632 43.436 16.632C43.736 16.62 43.946 16.614 44.066 16.614V18H38.9ZM54.7863 18.288C53.7063 18.288 52.9383 17.97 52.4823 17.334C52.0263 16.698 51.7983 15.69 51.7983 14.31V12.24C51.7983 12.024 51.8043 11.778 51.8163 11.502C51.8283 11.214 51.8403 10.938 51.8523 10.674C51.6603 10.686 51.4323 10.698 51.1683 10.71C50.9163 10.71 50.7243 10.716 50.5923 10.728V9.36H50.7723C51.5163 9.36 52.1043 9.3 52.5363 9.18C52.9683 9.06 53.2443 8.94 53.3643 8.82H54.3543V14.328C54.3543 15.108 54.4563 15.69 54.6603 16.074C54.8643 16.446 55.1883 16.632 55.6323 16.632C55.9443 16.632 56.2563 16.548 56.5683 16.38C56.8923 16.2 57.1563 15.996 57.3603 15.768V12.24C57.3603 12.024 57.3663 11.778 57.3783 11.502C57.3903 11.214 57.4083 10.938 57.4323 10.674C57.2403 10.686 57.0123 10.698 56.7483 10.71C56.4963 10.71 56.3043 10.716 56.1723 10.728V9.36H56.6043C57.1683 9.36 57.6663 9.3 58.0983 9.18C58.5303 9.048 58.8063 8.928 58.9263 8.82H59.9163V15.102C59.9163 15.27 59.9103 15.51 59.8983 15.822C59.8863 16.122 59.8683 16.41 59.8443 16.686C60.0363 16.662 60.2463 16.65 60.4743 16.65C60.7143 16.638 60.8943 16.632 61.0143 16.632V18H57.5943C57.5823 17.844 57.5643 17.688 57.5403 17.532C57.5283 17.376 57.5103 17.22 57.4863 17.064C57.1143 17.376 56.7123 17.658 56.2803 17.91C55.8603 18.162 55.3623 18.288 54.7863 18.288ZM66.3272 18.288C65.8112 18.288 65.3072 18.222 64.8152 18.09C64.3232 17.958 63.9392 17.79 63.6632 17.586L63.6992 18.126H62.3312L62.2592 15.03H63.4292C63.4892 15.582 63.7772 16.05 64.2932 16.434C64.8092 16.806 65.4512 16.992 66.2192 16.992C66.5192 16.992 66.8012 16.92 67.0652 16.776C67.3292 16.632 67.4612 16.404 67.4612 16.092C67.4492 15.744 67.2632 15.486 66.9032 15.318C66.5552 15.15 66.0452 14.934 65.3732 14.67C65.0012 14.526 64.6232 14.376 64.2392 14.22C63.8672 14.064 63.5192 13.878 63.1952 13.662C62.8832 13.434 62.6312 13.158 62.4392 12.834C62.2472 12.498 62.1512 12.09 62.1512 11.61C62.1512 11.142 62.2652 10.686 62.4932 10.242C62.7332 9.798 63.1052 9.432 63.6092 9.144C64.1132 8.856 64.7552 8.712 65.5352 8.712C65.8592 8.712 66.2252 8.766 66.6332 8.874C67.0532 8.97 67.4072 9.12 67.6952 9.324V8.802H69.0632V11.988H67.8932C67.7852 11.364 67.5092 10.872 67.0652 10.512C66.6212 10.152 66.0752 9.972 65.4272 9.972C65.1272 9.972 64.8512 10.044 64.5992 10.188C64.3592 10.332 64.2392 10.578 64.2392 10.926C64.2392 11.202 64.3352 11.424 64.5272 11.592C64.7192 11.748 64.9832 11.88 65.3192 11.988C65.6552 12.096 66.0272 12.222 66.4352 12.366C67.0472 12.57 67.5872 12.81 68.0552 13.086C68.5352 13.362 68.9132 13.698 69.1892 14.094C69.4652 14.478 69.6032 14.952 69.6032 15.516C69.6032 16.14 69.4472 16.656 69.1352 17.064C68.8232 17.472 68.4152 17.778 67.9112 17.982C67.4192 18.186 66.8912 18.288 66.3272 18.288ZM76.2875 16.83C76.7915 16.83 77.0975 16.686 77.2055 16.398C77.3135 16.098 77.3675 15.708 77.3675 15.228L77.3495 12.672C77.3495 11.136 76.8635 10.368 75.8915 10.368C75.5915 10.368 75.2915 10.434 74.9915 10.566C74.7035 10.698 74.4575 10.854 74.2535 11.034V15.102C74.2535 15.27 74.2475 15.51 74.2355 15.822C74.2235 16.122 74.2055 16.41 74.1815 16.686C74.3855 16.662 74.6015 16.65 74.8295 16.65C75.0575 16.638 75.2315 16.632 75.3515 16.632V18H70.6355V16.83C71.1395 16.83 71.4395 16.686 71.5355 16.398C71.6435 16.098 71.6975 15.708 71.6975 15.228V7.83C71.6975 7.614 71.7035 7.368 71.7155 7.092C71.7275 6.804 71.7455 6.528 71.7695 6.264C71.5775 6.276 71.3495 6.288 71.0855 6.3C70.8335 6.3 70.6415 6.306 70.5095 6.318V4.95C71.3495 4.95 71.9915 4.89 72.4355 4.77C72.8795 4.65 73.1615 4.53 73.2815 4.41H74.2535V9.72C74.4935 9.528 74.7695 9.36 75.0815 9.216C75.3935 9.06 75.7115 8.94 76.0355 8.856C76.3595 8.76 76.6415 8.712 76.8815 8.712C77.9855 8.712 78.7655 9.03 79.2215 9.666C79.6775 10.29 79.9115 11.298 79.9235 12.69V15.102C79.9235 15.27 79.9175 15.51 79.9055 15.822C79.8935 16.122 79.8755 16.41 79.8515 16.686C80.0435 16.662 80.2535 16.65 80.4815 16.65C80.7095 16.638 80.8895 16.632 81.0215 16.632V18H76.2875V16.83ZM82.5998 10.152L81.8978 9.648C82.0298 9.48 82.1738 9.24 82.3298 8.928C82.4978 8.616 82.6418 8.274 82.7618 7.902C82.8818 7.518 82.9358 7.152 82.9238 6.804C82.8398 6.828 82.7678 6.846 82.7078 6.858C82.6598 6.858 82.6058 6.858 82.5458 6.858C82.2218 6.858 81.9338 6.762 81.6818 6.57C81.4298 6.378 81.3038 6.078 81.3038 5.67C81.3038 5.31 81.4178 4.998 81.6458 4.734C81.8858 4.458 82.2038 4.32 82.5998 4.32C83.1518 4.308 83.5658 4.488 83.8418 4.86C84.1178 5.22 84.2558 5.67 84.2558 6.21C84.2558 6.786 84.1178 7.416 83.8418 8.1C83.5778 8.772 83.1638 9.456 82.5998 10.152ZM89.2667 18.288C88.7507 18.288 88.2467 18.222 87.7547 18.09C87.2627 17.958 86.8787 17.79 86.6027 17.586L86.6387 18.126H85.2707L85.1987 15.03H86.3687C86.4287 15.582 86.7167 16.05 87.2327 16.434C87.7487 16.806 88.3907 16.992 89.1587 16.992C89.4587 16.992 89.7407 16.92 90.0047 16.776C90.2687 16.632 90.4007 16.404 90.4007 16.092C90.3887 15.744 90.2027 15.486 89.8427 15.318C89.4947 15.15 88.9847 14.934 88.3127 14.67C87.9407 14.526 87.5627 14.376 87.1787 14.22C86.8067 14.064 86.4587 13.878 86.1347 13.662C85.8227 13.434 85.5707 13.158 85.3787 12.834C85.1867 12.498 85.0907 12.09 85.0907 11.61C85.0907 11.142 85.2047 10.686 85.4327 10.242C85.6727 9.798 86.0447 9.432 86.5487 9.144C87.0527 8.856 87.6947 8.712 88.4747 8.712C88.7987 8.712 89.1647 8.766 89.5727 8.874C89.9927 8.97 90.3467 9.12 90.6347 9.324V8.802H92.0027V11.988H90.8327C90.7247 11.364 90.4487 10.872 90.0047 10.512C89.5607 10.152 89.0147 9.972 88.3667 9.972C88.0667 9.972 87.7907 10.044 87.5387 10.188C87.2987 10.332 87.1787 10.578 87.1787 10.926C87.1787 11.202 87.2747 11.424 87.4667 11.592C87.6587 11.748 87.9227 11.88 88.2587 11.988C88.5947 12.096 88.9667 12.222 89.3747 12.366C89.9867 12.57 90.5267 12.81 90.9947 13.086C91.4747 13.362 91.8527 13.698 92.1287 14.094C92.4047 14.478 92.5427 14.952 92.5427 15.516C92.5427 16.14 92.3867 16.656 92.0747 17.064C91.7627 17.472 91.3547 17.778 90.8507 17.982C90.3587 18.186 89.8307 18.288 89.2667 18.288ZM98.7535 18V16.812C99.0295 16.8 99.2575 16.764 99.4375 16.704C99.6295 16.644 99.7735 16.506 99.8695 16.29C99.9775 16.074 100.032 15.726 100.032 15.246V8.352C100.032 8.028 100.038 7.716 100.05 7.416C100.074 7.116 100.092 6.888 100.104 6.732C99.9115 6.744 99.6715 6.756 99.3835 6.768C99.0955 6.768 98.8855 6.774 98.7535 6.786V5.4H103.92V6.588C103.656 6.6 103.428 6.636 103.236 6.696C103.044 6.756 102.894 6.894 102.786 7.11C102.69 7.314 102.642 7.662 102.642 8.154V10.89H103.938L105.324 8.532C105.528 8.172 105.744 7.812 105.972 7.452C106.2 7.092 106.392 6.846 106.548 6.714C106.356 6.726 106.152 6.738 105.936 6.75C105.72 6.762 105.546 6.774 105.414 6.786V5.4H109.824V6.588C109.56 6.6 109.272 6.648 108.96 6.732C108.66 6.816 108.348 6.984 108.024 7.236C107.7 7.488 107.37 7.884 107.034 8.424L105.306 11.196C105.762 11.496 106.14 11.85 106.44 12.258L108.294 14.868C108.654 15.384 109.032 15.834 109.428 16.218C109.836 16.59 110.244 16.788 110.652 16.812V18H107.88C107.784 17.988 107.628 17.88 107.412 17.676C107.196 17.472 106.968 17.226 106.728 16.938C106.488 16.65 106.284 16.392 106.116 16.164L104.334 13.572C104.178 13.344 104.004 13.11 103.812 12.87C103.632 12.63 103.458 12.45 103.29 12.33H102.642V15.048C102.642 15.372 102.636 15.684 102.624 15.984C102.612 16.284 102.594 16.512 102.57 16.668C102.762 16.644 103.002 16.632 103.29 16.632C103.59 16.62 103.8 16.614 103.92 16.614V18H98.7535ZM111.406 16.83C111.898 16.83 112.198 16.686 112.306 16.398C112.414 16.098 112.468 15.708 112.468 15.228V12.24C112.468 12.024 112.474 11.778 112.486 11.502C112.498 11.214 112.516 10.938 112.54 10.674C112.348 10.686 112.12 10.698 111.856 10.71C111.604 10.71 111.412 10.716 111.28 10.728V9.36C112.108 9.36 112.744 9.3 113.188 9.18C113.644 9.06 113.932 8.94 114.052 8.82H115.024V15.102C115.024 15.27 115.018 15.51 115.006 15.822C114.994 16.122 114.976 16.41 114.952 16.686C115.144 16.662 115.354 16.65 115.582 16.65C115.822 16.638 116.002 16.632 116.122 16.632V18H111.406V16.83ZM113.656 7.398C113.248 7.398 112.912 7.254 112.648 6.966C112.384 6.678 112.252 6.33 112.252 5.922C112.252 5.514 112.39 5.166 112.666 4.878C112.942 4.59 113.266 4.446 113.638 4.446C114.022 4.446 114.34 4.59 114.592 4.878C114.856 5.166 114.988 5.514 114.988 5.922C114.988 6.33 114.868 6.678 114.628 6.966C114.388 7.254 114.064 7.398 113.656 7.398ZM120.788 18.288C120.428 18.288 120.08 18.246 119.744 18.162C119.42 18.078 119.12 17.922 118.844 17.694C118.58 17.454 118.37 17.106 118.214 16.65C118.058 16.194 117.98 15.588 117.98 14.832L118.016 10.494H116.792V9C117.164 8.988 117.524 8.862 117.872 8.622C118.22 8.382 118.514 8.07 118.754 7.686C119.006 7.302 119.174 6.9 119.258 6.48H120.59L120.572 9H122.858V10.386L120.572 10.44L120.554 14.868C120.554 15.144 120.578 15.42 120.626 15.696C120.686 15.96 120.794 16.182 120.95 16.362C121.106 16.53 121.334 16.614 121.634 16.614C121.802 16.614 122.03 16.554 122.318 16.434C122.618 16.314 122.936 16.014 123.272 15.534L124.136 16.344C123.812 16.824 123.476 17.196 123.128 17.46C122.78 17.724 122.444 17.916 122.12 18.036C121.808 18.156 121.532 18.228 121.292 18.252C121.052 18.276 120.884 18.288 120.788 18.288ZM128.908 18.288C128.104 18.288 127.366 18.108 126.694 17.748C126.022 17.388 125.482 16.866 125.074 16.182C124.678 15.498 124.48 14.67 124.48 13.698C124.48 12.786 124.678 11.958 125.074 11.214C125.47 10.458 126.016 9.852 126.712 9.396C127.42 8.94 128.236 8.712 129.16 8.712C129.928 8.712 130.564 8.832 131.068 9.072C131.584 9.3 131.968 9.606 132.22 9.99C132.484 10.362 132.616 10.758 132.616 11.178C132.616 11.526 132.508 11.838 132.292 12.114C132.088 12.378 131.794 12.516 131.41 12.528C130.954 12.54 130.636 12.414 130.456 12.15C130.276 11.874 130.186 11.61 130.186 11.358C130.186 11.25 130.204 11.124 130.24 10.98C130.276 10.824 130.33 10.686 130.402 10.566C130.27 10.302 130.06 10.134 129.772 10.062C129.484 9.99 129.256 9.96 129.088 9.972C128.512 10.008 128.038 10.296 127.666 10.836C127.294 11.376 127.108 12.156 127.108 13.176C127.108 13.776 127.18 14.34 127.324 14.868C127.48 15.384 127.732 15.81 128.08 16.146C128.428 16.482 128.896 16.662 129.484 16.686C129.988 16.698 130.48 16.578 130.96 16.326C131.44 16.074 131.848 15.732 132.184 15.3L133.012 16.11C132.58 16.71 132.13 17.166 131.662 17.478C131.194 17.79 130.726 18 130.258 18.108C129.802 18.228 129.352 18.288 128.908 18.288ZM139.34 16.83C139.844 16.83 140.15 16.686 140.258 16.398C140.366 16.098 140.42 15.708 140.42 15.228L140.402 12.672C140.402 11.136 139.916 10.368 138.944 10.368C138.644 10.368 138.344 10.434 138.044 10.566C137.756 10.698 137.51 10.854 137.306 11.034V15.102C137.306 15.27 137.3 15.51 137.288 15.822C137.276 16.122 137.258 16.41 137.234 16.686C137.438 16.662 137.654 16.65 137.882 16.65C138.11 16.638 138.284 16.632 138.404 16.632V18H133.688V16.83C134.192 16.83 134.492 16.686 134.588 16.398C134.696 16.098 134.75 15.708 134.75 15.228V7.83C134.75 7.614 134.756 7.368 134.768 7.092C134.78 6.804 134.798 6.528 134.822 6.264C134.63 6.276 134.402 6.288 134.138 6.3C133.886 6.3 133.694 6.306 133.562 6.318V4.95C134.402 4.95 135.044 4.89 135.488 4.77C135.932 4.65 136.214 4.53 136.334 4.41H137.306V9.72C137.546 9.528 137.822 9.36 138.134 9.216C138.446 9.06 138.764 8.94 139.088 8.856C139.412 8.76 139.694 8.712 139.934 8.712C141.038 8.712 141.818 9.03 142.274 9.666C142.73 10.29 142.964 11.298 142.976 12.69V15.102C142.976 15.27 142.97 15.51 142.958 15.822C142.946 16.122 142.928 16.41 142.904 16.686C143.096 16.662 143.306 16.65 143.534 16.65C143.762 16.638 143.942 16.632 144.074 16.632V18H139.34V16.83ZM149.422 18.288C148.546 18.288 147.772 18.096 147.1 17.712C146.428 17.316 145.906 16.764 145.534 16.056C145.162 15.336 144.976 14.49 144.976 13.518C144.976 12.678 145.162 11.892 145.534 11.16C145.906 10.428 146.428 9.84 147.1 9.396C147.784 8.94 148.576 8.712 149.476 8.712C149.98 8.712 150.472 8.784 150.952 8.928C151.432 9.06 151.864 9.294 152.248 9.63C152.644 9.966 152.956 10.422 153.184 10.998C153.424 11.574 153.538 12.294 153.526 13.158L147.622 13.266C147.622 13.914 147.7 14.496 147.856 15.012C148.024 15.528 148.294 15.936 148.666 16.236C149.038 16.536 149.536 16.686 150.16 16.686C150.52 16.686 150.946 16.59 151.438 16.398C151.942 16.194 152.398 15.84 152.806 15.336L153.616 16.092C153.184 16.704 152.722 17.172 152.23 17.496C151.738 17.808 151.246 18.018 150.754 18.126C150.274 18.234 149.83 18.288 149.422 18.288ZM147.73 12.006H151.042C151.03 11.262 150.886 10.74 150.61 10.44C150.334 10.128 149.986 9.972 149.566 9.972C149.038 9.972 148.624 10.164 148.324 10.548C148.024 10.92 147.826 11.406 147.73 12.006ZM154.842 18V16.83C155.334 16.83 155.634 16.686 155.742 16.398C155.85 16.098 155.904 15.708 155.904 15.228V12.204C155.904 11.988 155.91 11.748 155.922 11.484C155.934 11.208 155.952 10.938 155.976 10.674C155.784 10.686 155.556 10.698 155.292 10.71C155.04 10.71 154.848 10.716 154.716 10.728V9.36C155.544 9.36 156.18 9.3 156.624 9.18C157.08 9.06 157.368 8.94 157.488 8.82H158.37C158.394 8.976 158.406 9.09 158.406 9.162C158.406 9.234 158.406 9.306 158.406 9.378C158.418 9.438 158.442 9.552 158.478 9.72C158.718 9.528 158.994 9.36 159.306 9.216C159.618 9.06 159.93 8.94 160.242 8.856C160.554 8.76 160.83 8.712 161.07 8.712C162.174 8.712 162.954 9.03 163.41 9.666C163.878 10.29 164.112 11.298 164.112 12.69V15.102C164.112 15.27 164.106 15.51 164.094 15.822C164.082 16.122 164.064 16.41 164.04 16.686C164.244 16.662 164.46 16.65 164.688 16.65C164.916 16.638 165.09 16.632 165.21 16.632V18H160.494V16.83C160.998 16.83 161.304 16.686 161.412 16.398C161.52 16.098 161.574 15.708 161.574 15.228L161.556 12.672C161.556 11.892 161.442 11.316 161.214 10.944C160.998 10.56 160.626 10.368 160.098 10.368C159.798 10.368 159.498 10.434 159.198 10.566C158.91 10.698 158.664 10.854 158.46 11.034V15.102C158.46 15.27 158.454 15.51 158.442 15.822C158.43 16.122 158.412 16.41 158.388 16.686C158.58 16.662 158.79 16.65 159.018 16.65C159.258 16.638 159.438 16.632 159.558 16.632V18H154.842Z" fill="#FCF5E9"/>
<ellipse cx="13" cy="10" rx="6" ry="6" transform="rotate(90 13 10)" fill="#FF8962"/>
<path d="M26 10C26 13.4478 24.6304 16.7544 22.1924 19.1924C19.7544 21.6304 16.4478 23 13 23C9.55219 23 6.24559 21.6304 3.80761 19.1924C1.36964 16.7544 5.20605e-07 13.4478 0 10L26 10Z" fill="#FCF5E9"/>
</svg>
