<svg width="16" height="16" viewBox="0 0 16 16" fill="none" xmlns="http://www.w3.org/2000/svg">
<path d="M7.99995 1.6665C8.38195 1.6685 8.72995 1.8845 8.89995 2.2265L10.4073 5.25317C10.4139 5.25984 10.4206 5.2665 10.4266 5.2665L13.8013 5.75317C14.0653 5.7905 14.3046 5.92917 14.4679 6.13984C14.7686 6.5425 14.7226 7.1045 14.3613 7.45317L11.9146 9.81984C11.9146 9.81984 11.9099 9.8245 11.9099 9.8265C11.9099 9.8285 11.9099 9.8265 11.9146 9.83317L12.5013 13.1732C12.5813 13.7165 12.2106 14.2245 11.6679 14.3132C11.6159 14.3205 11.5626 14.3252 11.5099 14.3252C11.3446 14.3258 11.1813 14.2852 11.0353 14.2065L8.02128 12.6332C8.01195 12.6325 8.00262 12.6352 7.99462 12.6398L4.95995 14.2265C4.81995 14.2972 4.66395 14.3338 4.50662 14.3332C4.13328 14.3338 3.78995 14.1285 3.61395 13.7998C3.50928 13.6065 3.47128 13.3838 3.50662 13.1665L4.10062 9.83984C4.10062 9.8325 4.09862 9.82517 4.09328 9.81984L1.62662 7.4465C1.43928 7.26384 1.33395 7.01317 1.33328 6.75117C1.33328 6.47517 1.44395 6.2105 1.64062 6.01784C1.79595 5.87784 1.98795 5.78584 2.19395 5.75117L5.56062 5.2645C5.57395 5.2645 5.58795 5.2585 5.58795 5.2445L7.09328 2.2265C7.21195 1.98717 7.42062 1.80584 7.67328 1.71984C7.77862 1.68384 7.88928 1.6665 7.99995 1.6665ZM7.99995 2.63984H7.98728L7.98062 2.6445C7.97462 2.64784 7.97062 2.65317 7.96728 2.65917L6.45995 5.67917C6.31462 5.97584 6.03395 6.18184 5.70728 6.2325L2.35395 6.71317L2.31328 6.7265C2.30795 6.73517 2.30662 6.74384 2.30728 6.75384L4.77395 9.1205C5.00862 9.35117 5.11528 9.6825 5.06062 10.0072L4.47395 13.3272V13.3405C4.47728 13.3538 4.48928 13.3632 4.50328 13.3632H4.51395L7.53328 11.7798C7.68128 11.7012 7.84662 11.6592 8.01395 11.6592C8.17662 11.6585 8.33662 11.6985 8.48062 11.7732L11.4806 13.3398H11.4866C11.4926 13.3432 11.4993 13.3458 11.5059 13.3465C11.5086 13.3478 11.5113 13.3478 11.5139 13.3465H11.5279L11.5413 13.3338L10.9539 10.0132C10.8893 9.68584 10.9979 9.3485 11.2413 9.1205L13.6879 6.74784L13.6946 6.73317L13.6879 6.72717H13.6786C13.6733 6.7245 13.6673 6.72317 13.6613 6.72317L10.2866 6.2325C9.95995 6.1825 9.67862 5.97584 9.53395 5.67917L8.02728 2.6665C8.02795 2.6605 8.02595 2.65517 8.02195 2.65117C8.01728 2.64717 8.01195 2.64584 8.00595 2.64584L7.99995 2.63984Z" fill="#5E594E"/>
</svg>
