<svg width="16" height="16" viewBox="0 0 16 16" fill="none" xmlns="http://www.w3.org/2000/svg">
<path d="M7.73325 1.3335C11.2681 1.3335 14.1333 4.31802 14.1333 8.00016C14.1333 11.6823 11.2681 14.6668 7.73325 14.6668C4.1984 14.6668 1.33325 11.6823 1.33325 8.00016C1.33325 4.31802 4.1984 1.3335 7.73325 1.3335ZM7.73325 2.3335C4.72859 2.3335 2.29325 4.8703 2.29325 8.00016C2.29325 11.13 4.72859 13.6668 7.73325 13.6668C10.7379 13.6668 13.1733 11.13 13.1733 8.00016C13.1733 4.8703 10.7379 2.3335 7.73325 2.3335ZM7.51668 4.7311C7.75968 4.7311 7.96051 4.9192 7.99229 5.16325L7.99668 5.2311L7.99642 8.17783L10.1754 9.53236C10.3841 9.66205 10.464 9.93076 10.3713 10.1573L10.3417 10.2179C10.2172 10.4353 9.95924 10.5186 9.74175 10.422L9.68356 10.3912L7.27076 8.89183C7.14633 8.8145 7.06323 8.68363 7.04203 8.53692L7.03668 8.46243V5.2311C7.03668 4.95495 7.25158 4.7311 7.51668 4.7311Z" fill="#5E594E"/>
</svg>
